<svg xmlns="http://www.w3.org/2000/svg" id="Layer_1" data-name="Layer 1" viewBox="0 0 1000 1000"><defs><style> .cls-1 { fill: #ffc229; } .cls-2 { fill: #052656; } </style></defs><path class="cls-1" d="M639.93,627.42c-.2,.36-.41,.72-.62,1.08-.46,.93-.96,1.89-1.57,2.9-.46,.77-.92,1.48-1.38,2.15-.39,.65-.77,1.29-1.17,1.93,11.34,27.85,16.69,52.79,5.69,63.53-29.08,28.4-162.47-52.1-255.93-141.42-90.73-86.71-173.03-213.95-146.66-243.34,8.83-9.84,28.46-7.15,45.78-2.32,3.2-2.33,6.45-4.58,9.76-6.76-78.8-36.76-108.99-34.24-120.39-21.86-33.96,36.85,65.26,196.59,178.64,304.95,117.02,111.84,284.27,208.85,320.78,172.36,12.11-12.11,14.79-43.85-32.94-133.2Z"></path><g><path class="cls-2" d="M248.71,358.85c4.97,13.23,13.34,30.31,26.69,51.92,4.66,7.54,9.73,15.25,15.06,23.03,26.71-47.75,77.74-80.04,136.34-80.04,86.23,0,156.14,69.91,156.14,156.14,0,57.07-30.63,106.96-76.33,134.2,4.81,3.18,9.6,6.27,14.35,9.24,22.12,13.82,42.47,24.68,59.86,32.08,48.73-42.8,79.5-105.56,79.5-175.52,0-128.97-104.55-233.53-233.53-233.53-71.37,0-135.25,32.03-178.09,82.48Z"></path><path class="cls-2" d="M510.07,723.51c-27.4-16.74-55.75-36.37-83.25-57.48h-.01c-84.25,0-152.88-66.74-155.99-150.22-23.51-28.61-45.14-58.24-63.16-86.75-9.29,25.19-14.37,52.41-14.37,80.83,0,128.97,104.55,233.53,233.53,233.53,31.09,0,60.75-6.09,87.87-17.12-1.53-.92-3.06-1.84-4.6-2.79Z"></path></g><g><path class="cls-2" d="M819.38,625.41l.21,.23c6.12-10.4,9.63-22.51,9.63-35.44,0-15.1-4.79-29.08-12.93-40.51l-73.85-82.02c-8.08-8.97-7.35-22.79,1.62-30.86,8.97-8.08,22.79-7.35,30.86,1.62l14.33,15.92c0-.28-.02-.56-.02-.84,0-19.3,5.88-37.23,15.94-52.09-26.25-23.39-66.46-23.78-93.19,.29-28.68,25.83-31,70.02-5.17,98.7l71.5,79.4c1.63,3.05,2.56,6.53,2.56,10.23,0,12.03-9.75,21.77-21.77,21.77s-21.77-9.75-21.77-21.77h-48.13c0,38.61,31.3,69.91,69.91,69.91,25.7,0,48.14-13.87,60.29-34.53Z"></path><g><path class="cls-1" d="M865.91,468.23v-.14c-3.52-3.87-5.69-8.99-5.69-14.64,0-12.03,9.75-21.77,21.77-21.77s21.77,9.75,21.77,21.77h48.09c-.03-38.59-31.31-69.86-69.91-69.86s-69.91,31.3-69.91,69.91c0,20.76,9.06,39.4,23.44,52.2l62.9,69.85c8.08,8.97,7.35,22.79-1.62,30.86-8.97,8.08-22.79,7.35-30.86-1.62l-49.63-55.12c8.14,11.44,12.94,25.42,12.94,40.53,0,12.93-3.52,25.04-9.64,35.44l10.06,11.17c25.83,28.68,70.02,31,98.7,5.17h0c28.68-25.83,31-70.02,5.17-98.7l-67.58-75.06Z"></path><path class="cls-1" d="M689.16,590.03h0s0,.07,0,.11c0-.04,0-.07,0-.11Z"></path></g></g><g><circle class="cls-2" cx="122.72" cy="425.4" r="41.87"></circle><path class="cls-1" d="M164.74,534.9v70.51c0-13.61-4.76-26.13-12.72-36.22-11.77-14.77-30.41-24.34-51.43-24.34H48.14v-64.99h58.3c32.18,0,58.3,24.66,58.3,55.03Z"></path><path class="cls-2" d="M162.36,614.83c-4.36-22.42-14.46-37.37-14.46-37.38-3.07-4.58-10.18-11.09-17.09-15.22-3.66-2.19-10.17-6.02-19.41-7.64-1.73-.3-3.86-.58-12.89-.68-1.63-.02-3.13-.02-4.52-.02-1,0-1.93,0-2.83,.01-.18,0-.37,0-.55,0-.85,0-1.65,.02-2.41,.03-.13,0-.25,0-.37,0-.69,.01-1.35,.03-1.97,.04-.1,0-.2,0-.3,0-.68,.02-1.33,.03-1.94,.05-.19,0-.39,.01-.58,.02-.47,.01-.94,.03-1.38,.04-.27,0-.54,.02-.8,.02v105.82h83.74v-25.22c-.17,0,0-2.41-.55-8.14,0,0-.58-6.02-1.69-11.75Z"></path></g></svg>